<?xml version="1.0" standalone="no"?>
<!DOCTYPE svg PUBLIC "-//W3C//DTD SVG 20010904//EN"
 "http://www.w3.org/TR/2001/REC-SVG-20010904/DTD/svg10.dtd">
<svg version="1.0" xmlns="http://www.w3.org/2000/svg"
 width="260.000000pt" height="260.000000pt" viewBox="0 0 260.000000 260.000000"
 preserveAspectRatio="xMidYMid meet">
<metadata>
Created by potrace 1.14, written by Peter Selinger 2001-2017
</metadata>
<g transform="translate(0.000000,260.000000) scale(0.100000,-0.100000)"
fill="#000000" stroke="none">
<path d="M1667 2083 c-4 -3 -7 -13 -7 -20 0 -20 170 -505 182 -520 21 -27 45
7 83 119 21 62 42 118 47 124 4 6 60 33 122 59 109 44 138 67 117 88 -11 11
-489 156 -517 157 -11 0 -24 -3 -27 -7z"/>
<path d="M480 2021 c-75 -23 -146 -85 -182 -160 -32 -66 -32 -177 1 -245 29
-58 77 -108 134 -138 l42 -23 596 -3 596 -3 63 33 c35 18 67 40 72 48 7 10
-16 88 -75 255 l-84 240 -569 2 c-313 1 -580 -2 -594 -6z m288 -158 c-3 -25
-7 -28 -45 -31 l-43 -3 0 -110 0 -109 -30 0 -30 0 0 109 0 110 -42 3 c-39 3
-43 6 -46 31 l-3 27 121 0 121 0 -3 -27z m266 5 c23 -33 21 -101 -4 -123 -11
-10 -20 -24 -20 -32 0 -8 9 -31 20 -53 11 -22 20 -42 20 -45 0 -3 -15 -5 -33
-5 -31 0 -35 4 -56 55 -20 49 -26 55 -52 55 -28 0 -29 -1 -29 -55 0 -54 0 -55
-30 -55 l-30 0 0 140 0 140 99 0 c92 0 101 -2 115 -22z m304 -5 c-3 -28 -4
-28 -80 -31 -75 -3 -78 -4 -78 -27 0 -24 2 -25 70 -25 l70 0 0 -30 0 -30 -70
0 c-68 0 -70 -1 -70 -25 0 -23 3 -24 78 -27 76 -3 77 -3 80 -31 l3 -28 -113 3
-113 3 -3 124 c-1 69 0 131 2 138 4 10 34 13 116 13 l111 0 -3 -27z m122 -1
c0 -18 10 -38 28 -55 l28 -27 27 28 c16 16 27 39 27 55 0 23 4 27 30 27 28 0
30 -2 30 -40 0 -33 -7 -48 -39 -83 -35 -37 -40 -50 -43 -97 -3 -54 -4 -55 -35
-58 l-33 -3 0 58 c0 56 -2 61 -40 98 -34 34 -40 45 -40 82 0 41 1 43 30 43 26
0 30 -4 30 -28z"/>
<path d="M880 1805 c0 -24 3 -25 55 -25 52 0 55 1 55 25 0 24 -3 25 -55 25
-52 0 -55 -1 -55 -25z"/>
<path d="M300 1220 l0 -140 93 0 c127 0 132 6 132 142 0 130 -7 138 -136 138
l-89 0 0 -140z m168 -2 l-3 -83 -52 -3 -53 -3 0 85 0 86 55 0 56 0 -3 -82z"/>
<path d="M590 1220 l0 -140 110 0 110 0 0 25 c0 25 -1 25 -80 25 l-80 0 0 30
0 29 73 3 c69 3 72 4 72 28 0 24 -3 25 -72 28 -70 3 -73 4 -73 27 0 23 3 24
78 27 76 3 77 3 80 31 l3 27 -110 0 -111 0 0 -140z"/>
<path d="M900 1340 c-14 -14 -20 -33 -20 -65 0 -60 22 -79 103 -85 58 -5 62
-7 62 -30 0 -23 -4 -25 -53 -28 -40 -2 -54 1 -58 12 -9 24 -54 21 -54 -4 0
-41 34 -60 110 -60 87 0 110 17 110 83 0 60 -24 81 -104 87 -54 4 -61 8 -64
28 -3 20 0 22 52 22 30 0 58 -4 61 -10 3 -5 17 -10 31 -10 31 0 32 29 1 58
-33 31 -147 32 -177 2z"/>
<path d="M1172 1333 c3 -24 8 -28 41 -31 l37 -3 0 -85 0 -84 -40 0 c-36 0 -40
-2 -40 -25 l0 -25 110 0 110 0 0 25 c0 23 -4 25 -40 25 l-40 0 0 84 0 85 38 3
c32 3 37 6 37 28 0 25 0 25 -108 28 l-108 3 3 -28z"/>
<path d="M1479 1341 c-22 -17 -24 -29 -27 -113 -3 -83 -1 -96 18 -121 20 -25
27 -27 94 -27 63 0 75 3 95 24 19 20 22 33 19 82 l-3 59 -52 3 -53 3 0 -30 c0
-27 4 -31 26 -31 22 0 25 -4 22 -27 -3 -26 -6 -28 -53 -28 l-50 0 -3 83 -3 82
56 0 c30 0 55 -4 55 -10 0 -5 14 -10 30 -10 37 0 40 21 5 55 -21 21 -33 25
-88 25 -49 0 -71 -5 -88 -19z"/>
<path d="M1740 1220 l0 -140 30 0 30 0 0 101 0 100 55 -47 c54 -47 55 -49 55
-101 0 -52 0 -53 30 -53 l30 0 0 140 0 140 -30 0 c-29 0 -30 -1 -30 -51 l0
-51 -56 51 c-40 37 -64 51 -85 51 l-29 0 0 -140z"/>
<path d="M2056 1339 c-20 -16 -26 -29 -26 -59 0 -61 26 -84 102 -90 59 -5 63
-6 63 -30 0 -23 -4 -25 -49 -28 -37 -2 -52 1 -58 12 -5 9 -20 16 -33 16 -31 0
-33 -27 -5 -58 18 -19 32 -22 94 -22 88 0 111 17 111 82 0 58 -37 88 -111 88
-51 0 -54 1 -54 25 0 24 3 25 55 25 30 0 55 -4 55 -10 0 -5 14 -10 31 -10 27
0 30 3 24 23 -12 41 -42 57 -110 57 -48 0 -68 -5 -89 -21z"/>
<path d="M592 863 c3 -24 8 -28 41 -31 l37 -3 0 -110 0 -109 30 0 30 0 0 109
0 110 38 3 c32 3 37 7 40 31 l3 27 -111 0 -111 0 3 -27z"/>
<path d="M880 750 l0 -140 25 0 c24 0 25 3 25 55 l0 55 60 0 60 0 0 -55 c0
-52 1 -55 25 -55 l25 0 0 140 0 140 -25 0 c-24 0 -25 -3 -25 -55 l0 -55 -60 0
-60 0 0 55 c0 52 -1 55 -25 55 l-25 0 0 -140z"/>
<path d="M1172 863 c3 -24 8 -28 41 -31 l37 -3 0 -85 0 -84 -40 0 c-36 0 -40
-2 -40 -25 l0 -26 108 3 c102 3 107 4 110 26 3 20 -1 22 -37 22 l-41 0 0 84 0
85 38 3 c32 3 37 6 37 28 0 25 0 25 -108 28 l-108 3 3 -28z"/>
<path d="M1475 865 c-23 -22 -25 -32 -25 -113 0 -75 3 -93 21 -116 19 -24 26
-26 94 -26 68 0 75 2 95 27 17 21 20 38 18 82 l-3 56 -52 3 -53 3 0 -30 c0
-27 4 -31 26 -31 22 0 25 -4 22 -27 -3 -26 -6 -28 -53 -28 l-50 0 -3 83 -3 82
56 0 c30 0 55 -4 55 -10 0 -5 14 -10 30 -10 37 0 40 21 5 55 -21 22 -33 25
-90 25 -57 0 -69 -3 -90 -25z"/>
<path d="M1740 750 l0 -140 30 0 30 0 0 101 0 100 55 -47 c54 -47 55 -49 55
-101 0 -52 0 -53 30 -53 l30 0 0 140 0 140 -30 0 c-29 0 -30 -1 -30 -51 l0
-51 -56 51 c-40 37 -64 51 -85 51 l-29 0 0 -140z"/>
<path d="M2052 867 c-31 -33 -30 -90 3 -122 20 -21 34 -25 85 -25 61 0 61 0
58 -27 -3 -26 -7 -28 -49 -31 -32 -2 -50 2 -59 13 -7 8 -23 15 -36 15 -31 0
-32 -29 -1 -58 19 -18 35 -22 89 -22 85 0 113 19 113 79 0 60 -29 85 -108 91
-54 4 -62 8 -62 25 0 17 8 20 58 23 35 2 57 -1 57 -8 0 -5 13 -10 29 -10 25 0
28 3 23 25 -7 40 -38 55 -112 55 -57 0 -70 -3 -88 -23z"/>
</g>
</svg>
